<?xml version="1.0" standalone="no"?>
<!DOCTYPE svg PUBLIC "-//W3C//DTD SVG 20010904//EN"
 "http://www.w3.org/TR/2001/REC-SVG-20010904/DTD/svg10.dtd">
<svg version="1.0" xmlns="http://www.w3.org/2000/svg"
 width="830.000000pt" height="833.000000pt" viewBox="0 0 830.000000 833.000000"
 preserveAspectRatio="xMidYMid meet">

<g transform="translate(0.000000,833.000000) scale(0.100000,-0.100000)"
fill="#000000" stroke="none">
<path d="M0 4165 l0 -4165 4150 0 4150 0 0 4165 0 4165 -4150 0 -4150 0 0
-4165z m4765 3535 c50 0 155 -20 155 -30 0 -3 -28 0 -62 8 -40 9 -126 14 -233
15 -93 1 -163 3 -155 5 47 9 236 17 245 10 5 -4 28 -8 50 -8z m-332 -17 c-7
-2 -19 -2 -25 0 -7 3 -2 5 12 5 14 0 19 -2 13 -5z m-56 -9 c-3 -3 -12 -4 -19
-1 -8 3 -5 6 6 6 11 1 17 -2 13 -5z m588 -14 c3 -5 1 -10 -4 -10 -6 0 -11 5
-11 10 0 6 2 10 4 10 3 0 8 -4 11 -10z m-653 -11 c-13 -12 -84 -21 -77 -9 3 5
10 8 15 5 5 -3 11 -1 15 5 3 5 17 9 30 8 14 -1 21 -5 17 -9z m688 1 c0 -5 -5
-10 -11 -10 -5 0 -7 5 -4 10 3 6 8 10 11 10 2 0 4 -4 4 -10z m-810 -38 c-68
-26 -175 -77 -180 -83 -3 -4 -17 -10 -32 -14 -15 -4 -34 -15 -44 -26 -9 -10
-21 -19 -27 -19 -16 0 -179 -135 -243 -202 -62 -65 -157 -182 -187 -230 -10
-16 -21 -28 -26 -28 -14 0 0 41 15 47 8 3 14 11 14 18 0 11 73 100 158 194 17
19 39 45 49 57 10 13 23 24 29 24 5 0 23 14 39 30 16 17 32 30 35 30 4 0 26
18 50 40 24 22 49 40 56 40 7 0 14 5 16 10 4 13 227 119 250 120 9 0 19 4 23
10 3 5 13 6 22 3 14 -5 10 -10 -17 -21z m860 18 c13 -9 13 -10 0 -10 -8 0 -22
5 -30 10 -13 9 -13 10 0 10 8 0 22 -5 30 -10z m54 -16 c9 -3 16 -10 16 -14 0
-10 -38 -1 -46 11 -6 10 7 12 30 3z m92 -51 c33 -14 85 -46 117 -70 31 -23 62
-43 67 -43 6 0 10 -4 10 -9 0 -5 9 -11 19 -14 10 -2 25 -15 32 -28 12 -23 11
-23 -22 3 -39 32 -196 138 -202 138 -8 0 -93 50 -86 50 4 0 33 -12 65 -27z
m369 -273 c16 -16 26 -32 24 -35 -3 -2 -21 11 -39 30 -19 19 -29 35 -24 35 6
0 23 -13 39 -30z m125 -142 c0 -6 -6 -5 -15 2 -8 7 -15 14 -15 16 0 2 7 1 15
-2 8 -4 15 -11 15 -16z m41 -55 c13 -16 12 -17 -3 -4 -10 7 -18 15 -18 17 0 8
8 3 21 -13z m49 -58 c0 -8 5 -15 10 -15 6 0 10 -6 10 -14 0 -8 8 -21 18 -28 9
-7 29 -35 42 -63 14 -27 29 -53 33 -56 15 -11 84 -154 91 -189 4 -22 -17 12
-58 92 -35 69 -89 161 -118 205 -76 109 -75 107 -49 94 11 -7 21 -18 21 -26z
m-2379 -128 c-47 -95 -109 -271 -118 -334 -3 -24 -10 -43 -14 -43 -13 0 -11
48 2 55 6 4 8 14 5 22 -4 9 -3 21 2 27 5 6 17 43 27 81 10 39 24 77 31 86 8 8
14 20 14 26 0 14 37 96 62 139 38 65 31 25 -11 -59z m2634 -372 c10 -38 22
-75 28 -82 5 -7 6 -17 2 -23 -4 -6 -2 -16 3 -23 14 -17 19 -56 8 -57 -6 -1
-18 33 -28 75 -10 41 -27 103 -38 137 -24 73 -24 77 -6 58 7 -8 21 -46 31 -85z
m-2775 -146 c-7 -71 -9 -173 -5 -239 5 -88 4 -112 -5 -103 -14 13 -10 439 4
461 16 26 17 3 6 -119z m2861 -253 c11 -13 12 -73 0 -80 -10 -7 -21 54 -20
104 1 27 3 29 6 10 3 -14 9 -29 14 -34z m-2855 -191 c-3 -10 -15 -11 -43 -5
-21 5 -68 12 -105 15 -37 4 -65 11 -62 16 7 12 71 11 79 -1 3 -5 19 -7 35 -3
17 3 36 0 45 -7 20 -17 35 -4 36 33 l1 32 10 -34 c5 -18 7 -39 4 -46z m-231
35 c4 -6 -42 -10 -129 -10 -84 0 -136 4 -136 10 0 6 50 10 129 10 76 0 132 -4
136 -10z m3084 -334 c-5 -5 -10 -8 -11 -5 -2 2 -1 83 1 179 l5 175 6 -170 c4
-93 3 -174 -1 -179z m-3372 326 c7 -4 -30 -13 -83 -21 -103 -13 -239 -50 -373
-100 -100 -37 -126 -40 -56 -7 54 26 107 48 115 48 3 0 10 3 15 8 14 11 177
50 209 50 14 0 28 5 32 11 3 6 20 9 36 7 16 -3 31 -1 34 4 6 10 55 10 71 0z
m-727 -266 c0 -2 -7 -7 -16 -10 -8 -3 -12 -2 -9 4 6 10 25 14 25 6z m-110 -81
c0 -8 -75 -74 -79 -69 -6 5 60 74 71 74 4 0 8 -2 8 -5z m4197 -52 c-3 -10 -5
-2 -5 17 0 19 2 27 5 18 2 -10 2 -26 0 -35z m-4343 -92 c-32 -34 -60 -58 -63
-56 -3 3 22 32 54 65 32 33 61 58 63 55 2 -2 -22 -31 -54 -64z m-116 -145
c-24 -36 -47 -65 -52 -65 -5 -1 -1 9 8 22 9 12 19 29 23 37 10 25 55 82 60 77
2 -3 -15 -35 -39 -71z m-72 -112 c-19 -18 -21 -11 -4 19 7 14 13 17 15 10 3
-7 -3 -20 -11 -29z m4471 -36 c-3 -7 -5 -2 -5 12 0 14 2 19 5 13 2 -7 2 -19 0
-25z m-4508 -42 c-11 -26 -23 -45 -26 -42 -6 6 15 63 30 84 19 24 17 5 -4 -42z
m4492 -9 c-10 -9 -11 -8 -5 6 3 10 9 15 12 12 3 -3 0 -11 -7 -18z m-1 -41 c0
-8 -4 -18 -10 -21 -5 -3 -10 3 -10 14 0 12 5 21 10 21 6 0 10 -6 10 -14z
m-4539 -69 c-11 -26 -23 -47 -26 -47 -11 0 7 64 24 86 24 32 24 14 2 -39z
m4520 -10 c-6 -6 -11 -22 -11 -36 0 -13 -3 -22 -6 -18 -4 3 -3 27 1 54 6 39 9
44 17 29 7 -12 7 -21 -1 -29z m-4555 -103 c-4 -20 -10 -34 -13 -30 -3 3 -2 21
1 42 4 20 10 34 13 30 3 -3 2 -21 -1 -42z m4523 -18 c-9 -8 -10 -7 -5 7 3 10
7 26 7 35 1 9 4 6 6 -7 3 -13 -1 -28 -8 -35z m-3 -53 c-11 -11 -17 4 -9 23 7
18 8 18 11 1 2 -10 1 -21 -2 -24z m-4537 0 c0 -25 -1 -25 -8 -8 -5 11 -7 23
-4 28 8 14 13 7 12 -20z m-12 -130 c-4 -54 -7 -115 -7 -136 0 -23 -4 -36 -10
-32 -13 8 -13 132 0 140 6 3 7 30 3 65 -4 46 -3 60 7 60 10 0 12 -21 7 -97z
m4520 25 c-3 -7 -5 -2 -5 12 0 14 2 19 5 13 2 -7 2 -19 0 -25z m-16 -79 c-5
-26 -9 -34 -10 -19 -1 27 9 73 15 67 2 -2 0 -23 -5 -48z m179 -84 c47 -4 86
-8 88 -10 2 -1 -27 -6 -65 -10 -63 -6 -68 -8 -69 -31 -1 -13 2 -24 6 -24 4 0
10 -9 13 -20 3 -11 10 -20 17 -20 6 0 9 4 6 9 -7 10 19 23 28 14 3 -4 6 -14 6
-24 0 -10 9 -24 20 -32 24 -16 70 -83 70 -100 0 -7 6 -19 12 -25 10 -10 10
-14 0 -21 -10 -6 -3 -13 23 -25 31 -15 36 -21 31 -42 -4 -13 -2 -24 3 -24 8 0
23 -49 36 -117 4 -18 2 -34 -4 -38 -6 -3 -11 -21 -11 -39 0 -17 -4 -36 -9 -42
-5 -5 -11 -20 -13 -34 -2 -14 -9 -24 -16 -22 -15 3 -16 -20 -1 -35 8 -8 8 -17
0 -31 -12 -22 0 -39 19 -27 6 3 11 0 11 -7 1 -7 3 -22 4 -33 1 -11 2 -27 3
-36 1 -9 11 -19 21 -22 13 -3 18 0 15 8 -3 7 -1 16 4 19 15 9 24 -25 11 -40
-9 -11 -8 -14 5 -14 35 0 12 -16 -62 -45 -188 -71 -465 -232 -560 -324 -23
-23 -45 -41 -50 -41 -32 0 -218 -210 -295 -333 -68 -109 -125 -245 -153 -367
-13 -59 -18 -69 -30 -59 -19 16 -18 29 4 29 14 0 15 2 2 10 -10 6 -16 6 -18 0
-2 -6 -10 -10 -18 -10 -8 0 -14 -4 -14 -10 0 -5 -12 -10 -27 -10 -16 0 -53 -9
-84 -19 -31 -10 -68 -16 -83 -14 -18 4 -31 1 -36 -8 -5 -7 -26 -13 -47 -14
-21 0 -43 -3 -48 -7 -6 -3 -28 -9 -50 -13 -22 -5 -42 -9 -45 -10 -86 -21 -113
-30 -132 -47 l-23 -21 34 7 c18 3 48 6 67 6 23 0 34 5 37 18 4 13 5 11 6 -5 1
-19 -4 -23 -26 -23 -16 0 -52 -3 -81 -7 -46 -5 -52 -4 -46 11 8 20 -3 21 -22
1 -16 -16 -49 -21 -40 -7 8 13 -57 1 -79 -14 -11 -8 -34 -14 -51 -14 -40 0
-64 -9 -64 -24 0 -12 -64 -15 -76 -3 -4 4 -19 7 -33 7 -26 -1 -26 -1 -6 -17
16 -13 17 -15 3 -10 -10 4 -43 1 -73 -5 -36 -7 -59 -7 -67 -1 -14 11 -130 2
-163 -12 -18 -8 -18 -7 -7 8 13 15 8 16 -55 10 -37 -3 -76 -10 -86 -15 -16 -8
-18 -7 -12 11 5 17 2 21 -13 21 -11 0 -23 -6 -26 -12 -3 -9 -8 -8 -16 5 -13
20 -50 23 -50 3 0 -8 -6 -17 -12 -19 -12 -5 12 -31 89 -95 l28 -24 -34 19
c-19 10 -64 47 -101 83 -114 113 -168 261 -156 430 7 106 18 144 69 248 22 45
37 85 34 88 -3 4 -20 1 -38 -5 -37 -13 -375 -15 -383 -3 -3 5 115 12 262 15
269 6 299 9 652 68 63 10 234 37 380 59 146 21 288 44 315 49 28 5 88 15 135
21 47 6 96 13 110 15 54 10 367 35 420 34 52 -1 53 -2 17 -9 -40 -7 -74 -30
-46 -30 9 0 5 -7 -10 -19 -31 -23 -22 -57 12 -47 12 3 49 9 82 12 33 4 65 11
72 16 7 6 13 4 16 -4 8 -18 57 37 57 62 0 15 9 19 43 22 l42 3 2 65 c10 273
41 530 93 770 11 52 34 163 51 245 16 83 34 166 39 186 l10 36 57 -8 c32 -4
96 -10 143 -14z m-4677 -134 c-1 -1 -6 0 -12 4 -13 7 -15 58 -3 69 6 7 21 -63
15 -73z m9 -41 c3 -16 1 -30 -4 -30 -4 0 -8 14 -8 30 0 17 2 30 4 30 2 0 6
-13 8 -30z m21 -100 c9 -30 19 -66 23 -80 4 -15 3 -22 -2 -17 -5 5 -9 12 -10
15 0 4 -3 14 -7 22 -10 24 -27 94 -27 109 0 24 8 8 23 -49z m65 -187 c6 -18 9
-33 7 -33 -7 0 -35 58 -35 72 0 19 16 -3 28 -39z m62 -137 c0 -6 -7 -2 -15 8
-8 11 -15 25 -15 30 0 6 7 2 15 -8 8 -11 15 -25 15 -30z m20 -26 c0 -5 -2 -10
-4 -10 -3 0 -8 5 -11 10 -3 6 -1 10 4 10 6 0 11 -4 11 -10z m130 -191 c0 -6
-4 -7 -10 -4 -5 3 -10 11 -10 16 0 6 5 7 10 4 6 -3 10 -11 10 -16z m44 -55 c5
-14 4 -15 -9 -4 -17 14 -19 20 -6 20 5 0 12 -7 15 -16z m138 -146 c56 -55 97
-99 90 -97 -12 4 -202 188 -202 196 0 10 18 -6 112 -99z m163 -156 c-3 -3 -18
7 -33 23 l-27 28 33 -23 c18 -12 31 -25 27 -28z m81 -59 c-7 -7 -26 7 -26 19
0 6 6 6 15 -2 9 -7 13 -15 11 -17z m192 -103 c188 -92 468 -169 679 -185 51
-4 90 -11 87 -16 -7 -12 -121 -12 -128 0 -3 5 -36 12 -73 15 -95 9 -236 37
-251 49 -7 5 -15 7 -19 4 -3 -4 -18 0 -32 7 -14 8 -46 20 -71 27 -25 7 -49 16
-55 20 -5 4 -14 8 -20 10 -36 7 -181 76 -204 96 -9 8 -27 23 -41 34 -18 15
-11 13 23 -6 27 -15 74 -40 105 -55z m2452 -850 c12 -8 11 -10 -7 -10 -13 0
-23 5 -23 10 0 13 11 13 30 0z m-295 -50 c-3 -5 -14 -10 -23 -9 -14 0 -13 2 3
9 27 11 27 11 20 0z m98 -257 c-7 -2 -19 -2 -25 0 -7 3 -2 5 12 5 14 0 19 -2
13 -5z m-116 -9 c-3 -3 -12 -4 -19 -1 -8 3 -5 6 6 6 11 1 17 -2 13 -5z m46 -1
c-7 -2 -19 -2 -25 0 -7 3 -2 5 12 5 14 0 19 -2 13 -5z m-226 -19 c-3 -3 -12
-4 -19 -1 -8 3 -5 6 6 6 11 1 17 -2 13 -5z m71 -1 c-10 -2 -28 -2 -40 0 -13 2
-5 4 17 4 22 1 32 -1 23 -4z"/>
<path d="M6027 4529 c6 -23 9 -24 16 -5 3 8 0 17 -7 19 -10 4 -12 -1 -9 -14z"/>
<path d="M6182 4323 c4 -22 38 -30 38 -10 0 8 -7 18 -16 21 -23 9 -26 8 -22
-11z"/>
<path d="M3743 2333 c9 -2 23 -2 30 0 6 3 -1 5 -18 5 -16 0 -22 -2 -12 -5z"/>
</g>
</svg>
